<mxfile host="app.diagrams.net" modified="2023-08-22T03:03:28.927Z" agent="Mozilla/5.0 (Windows NT 10.0; Win64; x64) AppleWebKit/537.36 (KHTML, like Gecko) Chrome/115.0.0.0 Safari/537.36 Edg/115.0.1901.203" version="21.6.7" etag="LuHSx84uHbux6lu1CoGW" type="github">
  <diagram name="第 1 页" id="IjYKbMB7uIvc38bhEyZa">
    <mxGraphModel>
      <root>
        <mxCell id="0" />
        <mxCell id="1" parent="0" />
      </root>
    </mxGraphModel>
  </diagram>
</mxfile>
